<?xml version="1.0" encoding="utf-8"?>
<!-- Generator: Adobe Illustrator 22.0.1, SVG Export Plug-In . SVG Version: 6.00 Build 0)  -->
<svg version="1.1" id="Layer_1" xmlns="http://www.w3.org/2000/svg" xmlns:xlink="http://www.w3.org/1999/xlink" x="0px" y="0px"
	 viewBox="0 0 189.4 87.3" style="enable-background:new 0 0 189.4 87.3;" xml:space="preserve">
<style type="text/css">
	.st0{fill:#76BC21;}
	.st1{fill:#FFFFFF;}
</style>
<path class="st0" d="M179.4,30.4c0-2.8,2.3-5,5-5c2.8,0,5,2.2,5,5c0,2.8-2.2,5-5,5C181.6,35.4,179.4,33.2,179.4,30.4"/>
<path class="st1" d="M28.8,16.8c0,5.8-1.6,10.3-4.7,13.4c-3.1,3.1-7.5,4.7-13.1,4.7H0V0.1h11.7c5.4,0,9.6,1.4,12.6,4.3
	C27.3,7.3,28.8,11.4,28.8,16.8 M19.3,17.1c0-3.2-0.6-5.5-1.8-7.1c-1.2-1.5-3.1-2.3-5.6-2.3H9.2v19.4h2c2.8,0,4.8-0.8,6.1-2.5
	C18.6,23,19.3,20.5,19.3,17.1"/>
<rect x="59.1" class="st1" width="8.7" height="34.9"/>
<path class="st1" d="M96.5,21.9c0,4.2-1.1,7.5-3.3,9.9c-2.2,2.4-5.3,3.6-9.3,3.6c-3.8,0-6.9-1.2-9.2-3.6c-2.3-2.4-3.4-5.7-3.4-9.8
	c0-4.2,1.1-7.5,3.3-9.8C76.8,9.7,80,8.5,84,8.5c2.5,0,4.7,0.5,6.6,1.6c1.9,1.1,3.4,2.6,4.4,4.7C96,16.8,96.5,19.2,96.5,21.9
	 M80.1,21.9c0,2.2,0.3,3.9,0.9,5.1c0.6,1.2,1.6,1.7,2.9,1.7c1.4,0,2.3-0.6,2.9-1.7c0.6-1.2,0.8-2.9,0.8-5.1c0-2.2-0.3-3.9-0.8-5
	c-0.6-1.1-1.5-1.7-2.9-1.7c-1.3,0-2.3,0.6-2.9,1.7C80.4,18,80.1,19.6,80.1,21.9"/>
<rect x="100" y="9" class="st1" width="8.7" height="25.9"/>
<rect x="100" class="st1" width="8.7" height="5.8"/>
<path class="st1" d="M126.4,28.3c1.2,0,2.6-0.3,4.2-0.9v6.5c-1.2,0.5-2.3,0.9-3.4,1.1c-1.1,0.2-2.3,0.3-3.7,0.3
	c-2.9,0-5-0.7-6.3-2.2c-1.3-1.5-1.9-3.7-1.9-6.8V15.7h-3.1V9h3.1V2.4l8.8-1.5V9h5.6v6.7H124v10.1C124,27.4,124.8,28.3,126.4,28.3"/>
<path class="st1" d="M146.6,28.3c1.2,0,2.6-0.3,4.2-0.9v6.5c-1.2,0.5-2.3,0.9-3.4,1.1c-1.1,0.2-2.3,0.3-3.7,0.3
	c-2.9,0-5-0.7-6.3-2.2c-1.3-1.5-1.9-3.7-1.9-6.8V15.7h-3.1V9h3.1V2.3l8.8-1.4V9h5.6v6.7h-5.6v10.1C144.2,27.4,145,28.3,146.6,28.3"
	/>
<path class="st1" d="M174.1,11.6c-2.1-2-5-3.1-8.8-3.1c-4,0-7.1,1.2-9.2,3.5c-2.2,2.3-3.2,5.7-3.2,10.1c0,4.2,1.2,7.5,3.5,9.8
	c2.3,2.3,5.6,3.4,9.8,3.4c2,0,3.8-0.1,5.2-0.4c1.4-0.3,2.9-0.8,4.2-1.5l-1.3-5.8c-1,0.4-1.9,0.7-2.8,0.9c-1.3,0.3-2.7,0.4-4.2,0.4
	c-1.7,0-3-0.4-4-1.2c-1-0.8-1.5-2-1.6-3.4h15.6v-4C177.2,16.5,176.2,13.6,174.1,11.6 M161.8,18.7c0.1-1.4,0.5-2.5,1.2-3.1
	c0.7-0.7,1.6-1,2.6-1c1.1,0,2,0.4,2.7,1.1c0.7,0.7,1,1.7,1,3H161.8z"/>
<path class="st1" d="M52.7,11.6c-2.1-2-5-3.1-8.8-3.1c-4,0-7.1,1.2-9.2,3.5c-2.2,2.3-3.2,5.7-3.2,10.1c0,4.2,1.2,7.5,3.5,9.8
	c2.3,2.3,5.6,3.4,9.8,3.4c2,0,3.8-0.1,5.2-0.4c1.4-0.3,2.9-0.8,4.2-1.5l-1.3-5.8c-1,0.4-1.9,0.7-2.8,0.9c-1.3,0.3-2.7,0.4-4.2,0.4
	c-1.7,0-3-0.4-4-1.2c-1-0.8-1.5-2-1.6-3.4h15.6v-4C55.8,16.5,54.7,13.6,52.7,11.6 M40.4,18.7c0.1-1.4,0.5-2.5,1.2-3.1
	c0.7-0.7,1.6-1,2.6-1c1.1,0,2,0.4,2.7,1.1c0.7,0.7,1,1.7,1,3H40.4z"/>
<path class="st1" d="M24.9,59.6c0,5.5-1.4,9.7-4.3,12.5c-2.9,2.8-7.1,4.2-12.7,4.2H0V43.5h8.9c5.2,0,9.2,1.4,11.9,4.1
	C23.5,50.3,24.9,54.3,24.9,59.6z M22.4,59.7c0-4.7-1.2-8.2-3.6-10.6c-2.4-2.4-5.9-3.6-10.5-3.6h-6v28.7h5.4
	C17.5,74.3,22.4,69.4,22.4,59.7z"/>
<path class="st1" d="M31.5,76.3h-2.2V51.9h2.2V76.3z"/>
<path class="st1" d="M31.5,49.1h-2.2V46h2.2V49.1z"/>
<path class="st1" d="M62.1,76.3h-2.2V51.9h2.2V76.3z"/>
<path class="st1" d="M62.1,49.1h-2.2V46h2.2V49.1z"/>
<path class="st1" d="M56,51.9v1.5l-5,0.3c1.3,1.7,2,3.5,2,5.5c0,2.3-0.8,4.2-2.3,5.7c-1.6,1.5-3.7,2.2-6.3,2.2c-1.1,0-1.9,0-2.3-0.1
	c-0.9,0.5-1.6,1-2,1.6c-0.5,0.6-0.7,1.3-0.7,2c0,0.8,0.3,1.3,0.9,1.7c0.6,0.4,1.6,0.5,3,0.5h4.3c2.6,0,4.7,0.5,6.1,1.6
	c1.4,1.1,2.1,2.6,2.1,4.7c0,2.6-1,4.6-3.1,6c-2.1,1.4-5.1,2.1-8.9,2.1c-3.1,0-5.4-0.6-7.1-1.8c-1.7-1.2-2.5-2.8-2.5-4.9
	c0-1.7,0.5-3.1,1.6-4.2c1-1.1,2.4-1.9,4.2-2.3c-0.7-0.3-1.3-0.8-1.8-1.3c-0.4-0.6-0.7-1.2-0.7-2c0-1.6,1-3.1,3.1-4.3
	c-1.4-0.6-2.5-1.5-3.3-2.7c-0.8-1.2-1.2-2.7-1.2-4.3c0-2.4,0.8-4.4,2.3-5.9c1.5-1.5,3.6-2.2,6.3-2.2c1.6,0,2.8,0.2,3.7,0.5H56z
	 M36.3,80.4c0,3.3,2.5,5,7.5,5c6.4,0,9.6-2,9.6-6.1c0-1.5-0.5-2.5-1.5-3.2c-1-0.7-2.6-1-4.9-1h-4C38.5,75.1,36.3,76.9,36.3,80.4z
	 M38.1,59.5c0,1.9,0.6,3.3,1.7,4.4c1.1,1,2.7,1.6,4.6,1.6c2,0,3.6-0.5,4.7-1.5c1.1-1,1.6-2.5,1.6-4.5c0-2.1-0.6-3.6-1.7-4.7
	c-1.1-1-2.7-1.6-4.7-1.6c-1.9,0-3.5,0.6-4.6,1.7C38.7,56,38.1,57.5,38.1,59.5z"/>
<path class="st1" d="M97.9,76.3l-0.6-3.9h-0.2c-1.2,1.6-2.5,2.7-3.8,3.3c-1.3,0.7-2.8,1-4.6,1c-2.4,0-4.3-0.6-5.6-1.8
	c-1.3-1.2-2-2.9-2-5.1c0-2.4,1-4.2,3-5.5c2-1.3,4.8-2,8.6-2.1l4.6-0.1v-1.6c0-2.3-0.5-4.1-1.4-5.2c-0.9-1.2-2.5-1.8-4.6-1.8
	c-2.3,0-4.6,0.6-7,1.9l-0.8-1.9c2.7-1.3,5.3-1.9,7.9-1.9c2.7,0,4.7,0.7,6,2.1c1.3,1.4,2,3.6,2,6.5v16.2H97.9z M88.9,74.7
	c2.6,0,4.7-0.7,6.2-2.2c1.5-1.5,2.3-3.6,2.3-6.2v-2.4l-4.3,0.2c-3.4,0.2-5.9,0.7-7.3,1.6c-1.5,0.9-2.2,2.3-2.2,4.2
	c0,1.5,0.5,2.7,1.4,3.6C85.9,74.3,87.2,74.7,88.9,74.7z"/>
<path class="st1" d="M108,76.3h-2.2V41.4h2.2V76.3z"/>
<path class="st1" d="M75.3,74.8c1.4,0,2.6-0.1,3.7-0.4v1.8c-1.1,0.4-2.3,0.5-3.7,0.5c-2.2,0-3.7-0.6-4.8-1.7c-1-1.2-1.5-3-1.5-5.4
	V53.8h-3.6v-1.9H69v-5.5l2.3-0.4v5.9h7.2v1.9h-7.2v15.4c0,1.9,0.3,3.3,1,4.1C72.9,74.3,73.9,74.8,75.3,74.8z"/>
</svg>
